<?xml version="1.0" standalone="no"?><!DOCTYPE svg PUBLIC "-//W3C//DTD SVG 1.1//EN" "http://www.w3.org/Graphics/SVG/1.1/DTD/svg11.dtd"><svg t="1566294773711" class="icon" viewBox="0 0 1024 1024" version="1.1" xmlns="http://www.w3.org/2000/svg" p-id="1548" xmlns:xlink="http://www.w3.org/1999/xlink" width="64" height="64"><defs><style type="text/css"></style></defs><path d="M723.362767 819.408342c2.708444 2.916785 6.666938 4.58352 11.042116 4.58352 4.375178 0 8.333672-1.875076 11.250458-4.58352 2.916785-2.916785 4.58352-6.87528 4.58352-11.250458 0-4.375178-1.666734-8.333672-4.58352-11.042116-2.916785-2.916785-6.87528-4.58352-11.250458-4.58352-4.375178 0-8.333672 1.666734-11.042116 4.58352-2.916785 2.916785-4.58352 6.666938-4.58352 11.042116-0.208342 4.375178 1.666734 8.333672 4.58352 11.250458zM500.853713 819.2c2.916785 2.916785 6.87528 4.58352 11.250458 4.58352 4.375178 0 8.333672-1.875076 11.250458-4.58352 2.916785-2.916785 4.58352-6.87528 4.58352-11.250458 0-4.375178-1.666734-8.333672-4.58352-11.042116-2.916785-2.916785-6.87528-4.58352-11.250458-4.58352-4.375178 0-8.333672 1.666734-11.250458 4.58352-2.916785 2.708444-4.58352 6.666938-4.58352 11.042116 0 4.375178 1.666734 8.333672 4.58352 11.250458zM278.553001 819.2c2.916785 2.916785 6.87528 4.58352 11.250458 4.58352 4.375178 0 8.333672-1.666734 11.042116-4.58352 2.916785-2.916785 4.58352-6.87528 4.58352-11.250458 0-4.375178-1.666734-8.333672-4.58352-11.042116-2.916785-2.916785-6.666938-4.58352-11.042116-4.58352-4.375178 0-8.333672 1.666734-11.250458 4.58352-2.916785 2.708444-4.58352 6.666938-4.58352 11.042116 0 4.375178 1.666734 8.333672 4.58352 11.250458z" fill="#1296db" p-id="1549"></path><path d="M750.238861 718.362564v-100.837437c0-13.125534-5.416887-25.209359-13.958902-33.751373s-20.417497-13.958901-33.543031-13.958902h-381.265514c-13.125534 0-25.001017 5.208545-33.543031 13.958902-8.542014 8.542014-13.958901 20.625839-13.958902 33.751373v112.087894l-10.625432 3.750153c-15.625636 5.625229-28.959512 15.833978-38.334893 28.959512-9.16704 12.70885-14.375585 28.542828-14.375585 45.626856 0 43.75178 35.418108 79.37823 79.37823 79.37823 21.87589 0 41.668362-8.958698 56.043947-23.334283 14.375585-14.375585 23.334283-34.168057 23.334283-56.043947 0-17.084028-5.416887-32.709664-14.375585-45.626856-9.375381-13.333876-22.917599-23.542625-38.543235-29.167854l-10.625433-3.750152v-128.130214H496.686877v128.130214L485.436419 733.363174c-15.625636 5.625229-28.959512 15.833978-38.334893 28.959512-9.16704 12.70885-14.375585 28.542828-14.375585 45.626856 0 43.75178 35.418108 79.37823 79.37823 79.37823 21.87589 0 41.668362-8.958698 56.043947-23.334283 14.375585-14.375585 23.334283-34.168057 23.334283-56.043947 0-17.084028-5.416887-32.918006-14.375585-45.626856-9.375381-13.333876-22.709257-23.542625-38.334893-28.959512l-10.625433-3.750153v-128.130213H718.987589v128.130213L708.362157 733.363174c-15.625636 5.625229-29.167854 15.833978-38.543235 29.167853-9.16704 12.70885-14.375585 28.542828-14.375585 45.626857 0 43.75178 35.62645 79.37823 79.37823 79.37823 21.87589 0 41.668362-8.958698 56.043947-23.125941 14.375585-14.375585 23.334283-34.168057 23.334283-56.043947 0-17.084028-5.416887-32.918006-14.375585-45.626857-9.375381-13.333876-22.709257-23.542625-38.334894-28.959511l-10.625432-3.750153-0.625025-11.667141z m-238.13469 137.505595c-13.125534 0-25.209359-5.416887-33.751373-13.958902-8.750356-8.750356-13.958901-20.625839-13.958902-33.751373 0-13.125534 5.416887-25.001017 14.167243-33.751373 8.750356-8.542014 20.625839-13.958901 33.751374-13.958902 13.125534 0 25.001017 5.416887 33.751373 13.958902 8.750356 8.750356 14.167243 20.625839 14.167243 33.751373 0 13.125534-5.416887 25.209359-13.958901 33.751373-9.16704 8.542014-21.042523 13.958901-34.168057 13.958902z m222.300712 0c-13.125534 0-25.001017-5.416887-33.751373-14.167243-8.542014-8.750356-13.958901-20.625839-13.958902-33.751374 0-13.125534 5.416887-25.209359 13.958902-33.751373s20.625839-13.958901 33.751373-13.958901c13.125534 0 25.001017 5.416887 33.751373 13.958901 8.750356 8.750356 14.167243 20.625839 14.167243 33.751373 0 13.125534-5.416887 25.209359-13.958901 33.751374-8.958698 8.750356-20.834181 14.167243-33.959715 14.167243z m-444.809766 0c-13.125534 0-25.209359-5.416887-33.751373-13.958902-8.750356-8.750356-13.958901-20.625839-13.958902-33.751373 0-13.125534 5.416887-25.001017 14.167243-33.751373 8.750356-8.542014 20.625839-13.958901 33.751374-13.958902 13.125534 0 25.209359 5.416887 33.751373 13.958902s13.958901 20.625839 13.958901 33.751373c0 13.125534-5.416887 25.001017-13.958901 33.751373-8.750356 8.542014-20.625839 13.958901-33.959715 13.958902z" fill="#1296db" p-id="1550"></path><path d="M640.442726 262.719023c0 34.793082-14.375585 66.461038-37.918209 89.378637-5.416887 5.208545-11.250458 10.000407-17.500712 14.375585 33.959715 5.416887 64.37762 21.042523 87.50356 43.75178 29.167854 28.334486 47.085249 67.711089 47.085249 110.837844v0.208342l0.208342 19.167446 0.208342 16.250661H303.970702v-35.418107c0-43.335097 18.125738-82.503357 47.085249-111.046186 23.334283-22.709257 53.543845-38.543235 87.503561-43.960122-6.250254-4.166836-12.083825-8.958698-17.500712-14.375585-23.334283-22.917599-37.709868-54.377213-37.709868-89.378636 0-34.793082 14.375585-66.461038 37.918209-89.170295 23.334283-22.709257 55.418922-36.876501 90.628688-36.876501 35.418108 0 67.502747 13.958901 90.83703 36.876501 23.334283 22.917599 37.709868 54.585554 37.709867 89.378636z" fill="#1296db" p-id="1551"></path><path d="M289.595117 760.447609c-13.125534 0-25.001017 5.416887-33.751373 13.958902-8.750356 8.750356-14.167243 20.625839-14.167243 33.751373 0 13.125534 5.416887 25.209359 13.958901 33.751373 8.750356 8.750356 20.625839 13.958901 33.751373 13.958902 13.125534 0 25.001017-5.416887 33.751374-14.167243 8.542014-8.750356 13.958901-20.625839 13.958901-33.751374 0-13.125534-5.416887-25.209359-13.958901-33.751373-8.333672-8.542014-20.209156-13.75056-33.543032-13.75056z m-15.625636 47.710275c0-4.375178 1.666734-8.333672 4.58352-11.042116 2.916785-2.916785 6.87528-4.58352 11.250458-4.58352 4.375178 0 8.333672 1.666734 11.042116 4.58352 2.916785 2.916785 4.58352 6.666938 4.58352 11.042116 0 4.375178-1.666734 8.333672-4.58352 11.250458-2.708444 2.916785-6.666938 4.58352-11.042116 4.58352-4.375178 0-8.333672-1.875076-11.250458-4.58352-2.916785-3.125127-4.58352-7.083622-4.58352-11.250458zM478.352798 774.406511c-8.750356 8.750356-14.167243 20.625839-14.167244 33.751373 0 13.125534 5.416887 25.209359 13.958902 33.751373 8.750356 8.750356 20.625839 13.958901 33.751373 13.958902s25.209359-5.416887 33.751373-13.958902c8.750356-8.750356 13.958901-20.625839 13.958902-33.751373 0-13.125534-5.416887-25.001017-14.167243-33.751373-8.750356-8.542014-20.625839-13.958901-33.751374-13.958902-12.70885 0-24.792675 5.208545-33.334689 13.958902z m17.917395 33.751373c0-4.375178 1.666734-8.333672 4.58352-11.042116 2.916785-2.916785 6.87528-4.58352 11.250458-4.58352 4.375178 0 8.333672 1.666734 11.250458 4.58352 2.916785 2.708444 4.58352 6.666938 4.58352 11.042116 0 4.375178-1.875076 8.333672-4.58352 11.250458-2.916785 2.916785-6.87528 4.58352-11.250458 4.58352-4.375178 0-8.333672-1.875076-11.250458-4.58352-2.916785-3.125127-4.58352-7.083622-4.58352-11.250458zM700.65351 774.406511c-8.542014 8.542014-13.958901 20.625839-13.958902 33.751373 0 13.125534 5.416887 25.001017 13.958902 33.751373 8.750356 8.750356 20.625839 14.167243 33.751373 14.167244 13.125534 0 25.209359-5.416887 33.751373-13.958902 8.750356-8.750356 13.958901-20.625839 13.958902-33.751373 0-13.125534-5.416887-25.001017-14.167243-33.751374-8.750356-8.542014-20.625839-13.958901-33.751374-13.958901-12.917192-0.208342-25.001017 5.000203-33.543031 13.75056z m17.917395 33.751373c0-4.375178 1.666734-8.333672 4.58352-11.042116 2.916785-2.916785 6.666938-4.58352 11.042116-4.58352 4.375178 0 8.333672 1.666734 11.250458 4.58352 2.916785 2.708444 4.58352 6.666938 4.58352 11.042116 0 4.375178-1.875076 8.333672-4.58352 11.250458-2.916785 2.916785-6.87528 4.58352-11.250458 4.58352-4.375178 0-8.333672-1.666734-11.042116-4.58352-2.708444-2.916785-4.58352-6.87528-4.58352-11.250458z" fill="#1296db" p-id="1552"></path></svg>