<?xml version="1.0" standalone="no"?><!DOCTYPE svg PUBLIC "-//W3C//DTD SVG 1.1//EN" "http://www.w3.org/Graphics/SVG/1.1/DTD/svg11.dtd"><svg t="1566294155445" class="icon" viewBox="0 0 1024 1024" version="1.1" xmlns="http://www.w3.org/2000/svg" p-id="990" xmlns:xlink="http://www.w3.org/1999/xlink" width="64" height="64"><defs><style type="text/css"></style></defs><path d="M224.7 816h575.35l-0.05-224H224z" fill="#0277BD" p-id="991"></path><path d="M742.95 251.05c0-23.75-21.85-43.05-48.55-43.05H329.75c-26.85 0-48.7 19.35-48.7 43.05V424.5h461.85l0.05-173.45z" fill="#BDBDBD" p-id="992"></path><path d="M816.6 416H207.4c-45 0-79.4 34.3-79.4 79.35v237.75c0 44.85 34.4 82.9 79.4 82.9h17.3l-0.7-224h576l0.05 224h16.55c45 0 79.4-38.05 79.4-82.9V495.35c0-45.05-34.4-79.35-79.4-79.35z" fill="#039BE5" p-id="993"></path><path d="M224.7 529.55h575.35l-0.05-33.55H224z" fill="#0277BD" p-id="994"></path><path d="M720 496c8.85 0 16 7.15 16 16s-7.15 16-16 16-16-7.15-16-16 7.15-16 16-16z" fill="#E53935" p-id="995"></path><path d="M768 496c8.85 0 16 7.15 16 16s-7.15 16-16 16-16-7.15-16-16 7.15-16 16-16z" fill="#FBC02D" p-id="996"></path></svg>